<?xml version="1.0" standalone="no"?><!DOCTYPE svg PUBLIC "-//W3C//DTD SVG 1.1//EN" "http://www.w3.org/Graphics/SVG/1.1/DTD/svg11.dtd"><svg t="1615995178288" class="icon" viewBox="0 0 1025 1024" version="1.1" xmlns="http://www.w3.org/2000/svg" p-id="1456" xmlns:xlink="http://www.w3.org/1999/xlink" width="64.0625" height="64"><defs><style type="text/css"></style></defs><path d="M773.657348 971.406155 544.571836 849.312422c-19.270902-10.270924-42.360783-10.400884-61.746296-0.348947L252.374938 968.462103c-29.661553 15.381315-64.085574-9.927093-58.250682-42.826388l45.327348-255.602446c3.812839-21.500687-3.198855-43.50177-18.749016-58.83192L35.83823 428.957679c-23.793916-23.457248-10.361999-64.015989 22.729677-68.63417l257.099543-35.877115c21.626553-3.01773 40.383756-16.48444 50.158377-36.011168L482.025315 56.302307c14.956643-29.878494 57.6807-29.636994 72.29863 0.408299l113.568569 233.429447c9.553587 19.636223 28.157293 33.313733 49.748031 36.576033l256.676917 38.779212c33.037441 4.991688 46.010917 45.699832 21.952988 68.885903L809.363571 614.526071c-15.722076 15.153118-22.981411 37.07336-19.412119 58.616002l42.436508 256.098749C837.850369 962.203562 803.142893 987.121068 773.657348 971.406155zM544.995485 774.166955l204.874087 109.189841c3.361561 1.791809 7.319709-1.048889 6.696516-4.807493l-37.951357-229.0323c-3.569292-21.542642 3.690042-43.462884 19.412119-58.616002l167.156044-161.105235c2.743484-2.644223 1.263783-7.284917-2.503007-7.854898l-229.551116-34.679847c-21.591761-3.2623-40.195467-16.939811-49.749054-36.576033l-101.565187-208.758558c-1.666966-3.426029-6.537903-3.453658-8.243755-0.047072l-103.917768 207.598128c-9.774621 19.526729-28.531823 32.993438-50.158377 36.011168l-229.92667 32.085766c-3.77293 0.527003-5.304819 5.151323-2.592035 7.825222L292.300252 588.383668c15.550161 15.33015 22.561855 37.331233 18.749016 58.83192l-40.536228 228.588185c-0.665149 3.751441 3.25923 6.637164 6.642281 4.883217L483.249189 773.818007C502.634702 763.766071 525.724583 763.89603 544.995485 774.166955z" p-id="1457"></path></svg>