<?xml version="1.0" standalone="no"?><!DOCTYPE svg PUBLIC "-//W3C//DTD SVG 1.1//EN" "http://www.w3.org/Graphics/SVG/1.1/DTD/svg11.dtd"><svg t="1618123474920" class="icon" viewBox="0 0 1216 1024" version="1.1" xmlns="http://www.w3.org/2000/svg" p-id="1140" xmlns:xlink="http://www.w3.org/1999/xlink" width="237.5" height="200"><defs><style type="text/css"></style></defs><path d="M1120 1024H96c-54.4 0-96-41.6-96-96V96c0-54.4 41.6-96 96-96h1024c54.4 0 96 41.6 96 96v832c0 54.4-41.6 96-96 96zM96 64c-19.2 0-32 12.8-32 32v832c0 19.2 12.8 32 32 32h1024c19.2 0 32-12.8 32-32V96c0-19.2-12.8-32-32-32H96z" p-id="1141" fill="#8a8a8a"></path><path d="M64 768c-9.6 0-16-3.2-22.4-9.6-12.8-12.8-12.8-32 0-44.8l352-352c12.8-12.8 28.8-12.8 41.6-3.2L800 662.4l172.8-115.2c12.8-6.4 25.6-6.4 38.4 3.2l160 128c12.8 9.6 16 32 6.4 44.8-9.6 12.8-32 16-44.8 6.4L992 617.6l-172.8 115.2c-12.8 6.4-28.8 6.4-38.4-3.2l-361.6-300.8L86.4 758.4c-6.4 6.4-12.8 9.6-22.4 9.6z" p-id="1142" fill="#8a8a8a"></path><path d="M896 512c-89.6 0-160-70.4-160-160s70.4-160 160-160 160 70.4 160 160-70.4 160-160 160z m0-256c-54.4 0-96 41.6-96 96s41.6 96 96 96 96-41.6 96-96-41.6-96-96-96z" p-id="1143" fill="#8a8a8a"></path></svg>